<?xml version="1.0" encoding="iso-8859-1"?>
<!-- Generator: Adobe Illustrator 19.0.0, SVG Export Plug-In . SVG Version: 6.00 Build 0)  -->
<svg version="1.1" id="Capa_1" xmlns="http://www.w3.org/2000/svg" xmlns:xlink="http://www.w3.org/1999/xlink" x="0px" y="0px"
	 viewBox="0 0 342.003 342.003" style="enable-background:new 0 0 342.003 342.003;opacity:0.8" xml:space="preserve">
<g>
	<g>
		<path d="M88.8,240.002c-2.4-4.8-10.4-4.8-12.8,0c-3.6,6.4-22,40-22,52.8c0,15.6,12.8,28.4,28.4,28.4c16-0.4,28.4-12.8,28.4-28.4
			C110.8,280.002,92.8,246.402,88.8,240.002z M82.8,306.402c-7.6,0-13.6-6.4-13.6-13.6c0-4.8,6.4-19.2,13.6-33.6
			c7.2,14.4,13.6,29.2,13.6,33.6C96.4,300.402,90.4,306.402,82.8,306.402z"/>
	</g>
</g>
<g>
	<g>
		<path  d="M177.6,239.602c-2.4-4.4-10.4-4.4-12.8,0c-3.6,6.4-22,40-22,52.8c0,15.6,12.8,28.4,28.4,28.4c15.6,0,28.4-12.8,28.4-28.4
			C199.6,279.602,181.6,246.002,177.6,239.602z M171.2,306.402c-7.6,0-13.6-6-13.6-13.6c0-4.8,6.4-19.2,13.6-33.6
			c7.2,14.4,13.6,29.2,13.6,33.6C184.8,300.002,178.8,306.402,171.2,306.402z"/>
	</g>
</g>
<g>
	<g>
		<path  d="M266,239.602c-2.4-4.8-10.4-4.8-12.8,0c-3.6,6.4-22,40-22,52.8c0.4,16,12.8,28.4,28.4,28.4c15.6,0,28.4-12.8,28.4-28.4
			C288,279.602,270,246.002,266,239.602z M259.6,306.402c-7.6,0-13.6-6-13.6-13.6c0-4.8,6.4-19.2,13.6-33.6
			c7.2,14.4,13.6,29.2,13.6,33.6C273.2,300.402,267.2,306.402,259.6,306.402z"/>
	</g>
</g>
<g>
	<g>
		<path style="opacity:0.8;" d="M254.8,67.202c-18-28.8-50-46.4-84-46.4c-44,0-82,28.4-94.4,69.6c-4-0.8-7.6-1.2-11.6-1.2c-35.6,0-64.8,29.2-64.8,64.8
			c0,35.6,28.8,64.8,64.4,64.8h188c49.6,0,89.6-34,89.6-75.6C342.4,101.602,303.2,68.002,254.8,67.202z M252.8,204.002h-188
			c-27.6,0-50-22.4-50-50c0-27.6,22.4-50,50-50c4.8,0,10,0.8,14.8,2c2,0.4,4,0.4,6-0.8c1.6-1.2,3.2-2.8,3.6-4.8
			c8.8-38.4,42.4-65.6,82-65.6c30.4,0,58.4,16.4,73.6,42.8c1.2,2.4,3.6,4,6.4,3.6h2c41.6,0,75.2,27.2,75.2,61.2
			S294,204.002,252.8,204.002z"/>
	</g>
</g>
<g>
</g>
<g>
</g>
<g>
</g>
<g>
</g>
<g>
</g>
<g>
</g>
<g>
</g>
<g>
</g>
<g>
</g>
<g>
</g>
<g>
</g>
<g>
</g>
<g>
</g>
<g>
</g>
<g>
</g>
</svg>
